<svg width="394.3211181640625px" height="120.00000305175782px" xmlns="http://www.w3.org/2000/svg" viewBox="52.839440917968744 14.999998474121092 394.3211181640625 120.00000305175782" style="background:#121212" preserveAspectRatio="xMidYMid"><defs><linearGradient id="editing-glowing-gradient" x1="0.8146601955249186" x2="0.18533980447508142" y1="0.8885729807284856" y2="0.11142701927151444"><stop offset="0" stop-color="#FFFFFF"></stop><stop offset="1" stop-color="#FFFFFF"></stop></linearGradient><filter id="editing-glowing" x="-100%" y="-100%" width="300%" height="300%"><feGaussianBlur in="SourceGraphic" result="blur" stdDeviation="10"></feGaussianBlur><feMerge><feMergeNode in="blur"></feMergeNode><feMergeNode in="SourceGraphic"></feMergeNode></feMerge></filter></defs><g filter="url(#editing-glowing)"><g transform="translate(110.58762907981873, 92.32999229431152)"><path d="M26.17-4.33L19.09-16.46L19.09 0L2.24 0L2.24-9.54L5.05-10.09L5.05-23.66L2.24-24.21L2.24-33.75L19.09-33.75L26.17-20.79L33.18-33.75L50.05-33.75L50.05-24.21L47.24-23.66L47.24-10.09L50.05-9.54L50.05 0L33.18 0L33.18-16.46L26.17-4.33ZM93.74-24.21L90.92-23.66L90.92-23.66Q90.90-22.96 90.90-22.29L90.90-22.29L90.90-22.29Q90.90-21.62 90.90-20.98L90.90-20.98L90.90-17.27L90.90-17.27Q90.90-12.61 89.64-9.24L89.64-9.24L89.64-9.24Q88.37-5.87 86.19-3.68L86.19-3.68L86.19-3.68Q84.00-1.49 81.08-0.55L81.08-0.55L81.08-0.55Q78.16 0.40 74.86 0.40L74.86 0.40L74.86 0.40Q72.29 0.40 69.93 0.05L69.93 0.05L69.93 0.05Q67.57-0.29 65.52-1.22L65.52-1.22L65.52-1.22Q63.48-2.15 61.81-3.59L61.81-3.59L61.81-3.59Q60.14-5.03 58.94-7.02L58.94-7.02L58.94-7.02Q57.74-9.01 57.10-11.56L57.10-11.56L57.10-11.56Q56.45-14.11 56.45-17.27L56.45-17.27L56.45-23.66L53.64-24.21L53.64-33.75L71.89-33.75L71.89-24.21L69.08-23.66L69.08-20.83L69.08-20.83Q69.08-20.28 69.08-19.72L69.08-19.72L69.08-19.72Q69.08-19.16 69.09-18.68L69.09-18.68L69.09-18.68Q69.10-18.19 69.10-17.82L69.10-17.82L69.10-17.82Q69.10-17.45 69.10-17.27L69.10-17.27L69.10-17.27Q69.10-16.72 69.13-16.00L69.13-16.00L69.13-16.00Q69.15-15.27 69.31-14.49L69.31-14.49L69.31-14.49Q69.48-13.71 69.81-12.94L69.81-12.94L69.81-12.94Q70.14-12.17 70.76-11.57L70.76-11.57L70.76-11.57Q71.39-10.96 72.34-10.59L72.34-10.59L72.34-10.59Q73.30-10.22 74.71-10.22L74.71-10.22L74.71-10.22Q76.11-10.22 77.07-10.59L77.07-10.59L77.07-10.59Q78.02-10.96 78.66-11.57L78.66-11.57L78.66-11.57Q79.30-12.17 79.64-12.94L79.64-12.94L79.64-12.94Q79.98-13.71 80.13-14.49L80.13-14.49L80.13-14.49Q80.29-15.27 80.32-16.00L80.32-16.00L80.32-16.00Q80.35-16.72 80.35-17.27L80.35-17.27L80.35-17.27Q80.35-17.45 80.35-17.82L80.35-17.82L80.35-17.82Q80.35-18.19 80.34-18.68L80.34-18.68L80.34-18.68Q80.33-19.16 80.33-19.72L80.33-19.72L80.33-19.72Q80.33-20.28 80.33-20.83L80.33-20.83L80.33-23.66L77.52-24.21L77.52-33.75L93.74-33.75L93.74-24.21ZM126.30-10.59L126.30-10.59L126.30-10.59Q126.28-8.42 125.67-6.73L125.67-6.73L125.67-6.73Q125.07-5.05 123.99-3.83L123.99-3.83L123.99-3.83Q122.92-2.61 121.46-1.77L121.46-1.77L121.46-1.77Q120.01-0.92 118.34-0.41L118.34-0.41L118.34-0.41Q116.67 0.11 114.84 0.25L114.84 0.25L114.84 0.25Q113.01 0.40 111.16 0.40L111.16 0.40L111.16 0.40Q107.82 0.40 105.29 0.13L105.29 0.13L105.29 0.13Q103.84-0.04 100.96-0.83L100.96-0.83L100.96-0.83Q98.61-1.47 97.27-2.18L97.27-2.18L97.27-10.85L103.89-10.85L103.89-10.85Q105.03-9.27 106.47-8.53L106.47-8.53L106.47-8.53Q107.91-7.78 109.42-7.78L109.42-7.78L109.42-7.78Q109.82-7.78 110.30-7.84L110.30-7.84L110.30-7.84Q110.79-7.91 111.21-8.22L111.21-8.22L111.21-8.22Q111.64-8.53 111.94-9.18L111.94-9.18L111.94-9.18Q112.24-9.84 112.24-11.03L112.24-11.03L112.24-11.03Q110.35-11.21 108.49-11.54L108.49-11.54L108.49-11.54Q106.63-11.87 104.94-12.44L104.94-12.44L104.94-12.44Q103.25-13.01 101.79-13.88L101.79-13.88L101.79-13.88Q100.33-14.74 99.26-15.97L99.26-15.97L99.26-15.97Q98.20-17.20 97.59-18.86L97.59-18.86L97.59-18.86Q96.99-20.52 96.99-22.70L96.99-22.70L96.99-22.70Q96.99-25.03 97.60-26.80L97.60-26.80L97.60-26.80Q98.22-28.56 99.28-29.85L99.28-29.85L99.28-29.85Q100.35-31.14 101.79-31.98L101.79-31.98L101.79-31.98Q103.23-32.83 104.89-33.33L104.89-33.33L104.89-33.33Q106.55-33.84 108.34-33.97L108.34-33.97L108.34-33.97Q110.13-34.10 111.91-34.10L111.91-34.10L111.91-34.10Q114.50-34.10 116.58-33.91L116.58-33.91L116.58-33.91Q118.65-33.73 120.32-33.33L120.32-33.33L120.32-33.33Q121.99-32.94 123.28-32.44L123.28-32.44L123.28-32.44Q124.56-31.95 125.57-31.49L125.57-31.49L125.57-22.92L118.96-22.92L118.96-22.92Q117.84-24.50 116.47-25.25L116.47-25.25L116.47-25.25Q115.09-25.99 113.64-25.99L113.64-25.99L113.64-25.99Q113.25-25.99 112.74-25.89L112.74-25.89L112.74-25.89Q112.24-25.80 111.80-25.43L111.80-25.43L111.80-25.43Q111.36-25.07 111.05-24.38L111.05-24.38L111.05-24.38Q110.74-23.69 110.74-22.50L110.74-22.50L110.74-22.50Q114.59-22.37 117.51-21.67L117.51-21.67L117.51-21.67Q120.43-20.96 122.38-19.54L122.38-19.54L122.38-19.54Q124.32-18.13 125.31-15.92L125.31-15.92L125.31-15.92Q126.30-13.71 126.30-10.59ZM130.23-24.21L130.23-33.75L149.92-33.75L149.92-24.21L147.11-23.66L147.11-10.09L149.92-9.54L149.92 0L130.23 0L130.23-9.54L133.04-10.09L133.04-23.66L130.23-24.21ZM167.67-17.27L167.67-17.27L167.67-17.27Q167.67-15.38 168.16-14.02L168.16-14.02L168.16-14.02Q168.64-12.66 169.57-11.78L169.57-11.78L169.57-11.78Q170.51-10.90 171.86-10.48L171.86-10.48L171.86-10.48Q173.21-10.06 174.95-10.06L174.95-10.06L174.95-10.06Q177.01-10.06 179.82-10.57L179.82-10.57L179.82-10.57Q182.64-11.07 186.04-12.13L186.04-12.13L186.04-1.85L186.04-1.85Q182.50-0.66 179.15-0.13L179.15-0.13L179.15-0.13Q175.80 0.40 172.55 0.40L172.55 0.40L172.55 0.40Q168.57 0.40 165.11-0.59L165.11-0.59L165.11-0.59Q161.65-1.58 159.09-3.79L159.09-3.79L159.09-3.79Q156.53-6.00 155.06-9.36L155.06-9.36L155.06-9.36Q153.59-12.72 153.59-17.27L153.59-17.27L153.59-17.27Q153.59-21.71 154.94-24.92L154.94-24.92L154.94-24.92Q156.29-28.13 158.76-30.20L158.76-30.20L158.76-30.20Q161.24-32.28 164.70-33.27L164.70-33.27L164.70-33.27Q168.16-34.26 172.38-34.26L172.38-34.26L172.38-34.26Q174.97-34.26 177.04-33.99L177.04-33.99L177.04-33.99Q179.12-33.73 180.79-33.33L180.79-33.33L180.79-33.33Q182.46-32.94 183.75-32.44L183.75-32.44L183.75-32.44Q185.03-31.95 186.04-31.49L186.04-31.49L186.04-21.38L179.43-21.38L179.43-21.38Q178.31-22.96 176.93-23.71L176.93-23.71L176.93-23.71Q175.56-24.46 174.11-24.46L174.11-24.46L174.11-24.46Q172.88-24.46 171.73-23.97L171.73-23.97L171.73-23.97Q170.57-23.49 169.67-22.57L169.67-22.57L169.67-22.57Q168.77-21.64 168.22-20.31L168.22-20.31L168.22-20.31Q167.67-18.98 167.67-17.27ZM190.55-19.69L201.80-19.69L201.80-14.06L190.55-14.06L190.55-19.69ZM223.37-25.31L223.37-19.31L229.35-20.74L229.35-12.96L223.37-14.39L223.37-10.09L226.19-9.45L226.19 0L206.50 0L206.50-9.54L209.31-10.09L209.31-23.62L206.50-24.17L206.50-33.75L233.68-33.75L233.68-22.50L229.99-22.50L229.99-22.50Q229.46-22.98 228.79-23.49L228.79-23.49L228.79-23.49Q228.12-23.99 227.30-24.40L227.30-24.40L227.30-24.40Q226.47-24.81 225.49-25.06L225.49-25.06L225.49-25.06Q224.52-25.31 223.37-25.31L223.37-25.31ZM266.46 0L245.19 0L245.19-9.49L248.01-10.20L238.36-23.69L234.80-24.21L234.80-33.75L253.56-33.75L253.56-24.21L251.37-23.69L255.83-16.79L260.29-23.69L258.09-24.21L258.09-33.75L276.83-33.75L276.83-24.21L273.30-23.69L263.65-10.20L266.46-9.49L266.46 0Z" fill="url(#editing-glowing-gradient)"></path></g></g><style>text {
  font-size: 64px;
  font-family: Arial Black;
  dominant-baseline: central;
  text-anchor: middle;
}</style></svg>